<?xml version="1.0" standalone="no"?>
<!DOCTYPE svg PUBLIC "-//W3C//DTD SVG 20010904//EN"
 "http://www.w3.org/TR/2001/REC-SVG-20010904/DTD/svg10.dtd">
<svg version="1.0" xmlns="http://www.w3.org/2000/svg"
 width="512.000000pt" height="512.000000pt" viewBox="0 0 512.000000 512.000000"
 preserveAspectRatio="xMidYMid meet">
<metadata>
Created by potrace 1.15, written by Peter Selinger 2001-2017
</metadata>
<g transform="translate(0.000000,512.000000) scale(0.100000,-0.100000)"
fill="#212121" stroke="#eee" style="background-color:#212121;">
<path d="M578 4542 l-258 -257 0 -683 c0 -669 0 -682 20 -702 19 -19 33 -20
400 -20 l380 0 0 -460 c0 -447 1 -461 20 -480 27 -27 93 -27 120 0 19 19 20
33 20 480 l0 460 222 0 223 0 257 258 c256 255 258 258 258 300 0 56 -26 82
-82 82 -41 0 -46 -4 -220 -177 l-178 -177 0 514 0 515 160 160 160 160 0 -238
c0 -224 1 -238 20 -257 27 -27 93 -27 120 0 19 19 20 33 20 380 0 347 -1 361
-20 380 -20 20 -33 20 -702 20 l-683 0 -257 -258z m1217 -62 l-160 -160 -515
0 -515 0 160 160 160 160 515 0 515 0 -160 -160z m-195 -880 l0 -560 -560 0
-560 0 0 560 0 560 560 0 560 0 0 -560z"/>
<path d="M3138 4542 l-258 -257 0 -223 0 -222 -460 0 c-447 0 -461 -1 -480
-20 -27 -27 -27 -93 0 -120 19 -19 33 -20 480 -20 l460 0 0 -380 c0 -367 1
-381 20 -400 19 -19 33 -20 400 -20 l380 0 0 -460 c0 -447 1 -461 20 -480 27
-27 93 -27 120 0 19 19 20 33 20 480 l0 460 222 0 223 0 257 258 258 257 0
683 c0 669 0 682 -20 702 -20 20 -33 20 -702 20 l-683 0 -257 -258z m1217 -62
l-160 -160 -515 0 -515 0 160 160 160 160 515 0 515 0 -160 -160z m125 -1155
l-160 -160 0 515 0 515 158 158 157 157 3 -512 2 -513 -160 -160z m-320 275
l0 -560 -560 0 -560 0 0 560 0 560 560 0 560 0 0 -560z"/>
<path d="M578 1982 l-258 -257 0 -683 c0 -669 0 -682 20 -702 20 -20 33 -20
702 -20 l683 0 257 258 c256 255 258 258 258 300 0 56 -26 82 -82 82 -41 0
-46 -4 -220 -177 l-178 -177 0 514 0 515 160 160 160 160 0 -238 c0 -224 1
-238 20 -257 27 -27 93 -27 120 0 19 19 20 33 20 380 0 347 -1 361 -20 380
-19 19 -33 20 -380 20 -347 0 -361 -1 -380 -20 -13 -13 -20 -33 -20 -60 0 -27
7 -47 20 -60 19 -19 33 -20 257 -20 l238 0 -160 -160 -160 -160 -515 0 -514 0
177 178 c173 174 177 179 177 220 0 56 -26 82 -82 82 -42 0 -45 -2 -300 -258z
m1022 -942 l0 -560 -560 0 -560 0 0 560 0 560 560 0 560 0 0 -560z"/>
<path d="M3138 1982 l-258 -257 0 -223 0 -222 -460 0 c-447 0 -461 -1 -480
-20 -27 -27 -27 -93 0 -120 19 -19 33 -20 480 -20 l460 0 0 -380 c0 -367 1
-381 20 -400 20 -20 33 -20 702 -20 l683 0 257 258 258 257 0 683 c0 669 0
682 -20 702 -19 19 -33 20 -380 20 -347 0 -361 -1 -380 -20 -13 -13 -20 -33
-20 -60 0 -27 7 -47 20 -60 19 -19 33 -20 257 -20 l238 0 -160 -160 -160 -160
-515 0 -514 0 177 178 c173 174 177 179 177 220 0 56 -26 82 -82 82 -42 0 -45
-2 -300 -258z m1342 -1217 l-160 -160 0 515 0 515 158 158 157 157 3 -512 2
-513 -160 -160z m-320 275 l0 -560 -560 0 -560 0 0 560 0 560 560 0 560 0 0
-560z"/>
</g>
</svg>
