<?xml version="1.0" standalone="no"?>
<!DOCTYPE svg PUBLIC "-//W3C//DTD SVG 20010904//EN"
 "http://www.w3.org/TR/2001/REC-SVG-20010904/DTD/svg10.dtd">
<svg version="1.0" xmlns="http://www.w3.org/2000/svg"
 width="800.000000pt" height="800.000000pt" viewBox="0 0 800.000000 800.000000"
 preserveAspectRatio="xMidYMid meet">
<metadata>
</metadata>
<g transform="translate(0.000000,800.000000) scale(0.100000,-0.100000)"
fill="#212121" stroke="#eee" style="background-color:#212121;">
<path d="M3045 6648 c-60 -5 -176 -24 -256 -43 -80 -19 -162 -35 -183 -35 -24
0 -53 -11 -86 -32 l-50 -33 0 -452 0 -451 38 10 c80 22 198 57 222 66 14 5 84
24 155 43 108 27 148 32 235 32 123 -1 162 -13 230 -71 63 -54 113 -132 155
-240 39 -103 155 -478 155 -505 0 -9 -39 -108 -86 -220 -188 -443 -266 -625
-294 -687 -16 -36 -68 -157 -116 -270 -148 -349 -734 -1721 -769 -1800 -18
-41 -49 -113 -68 -160 -19 -47 -51 -121 -70 -165 -19 -44 -73 -170 -119 -280
-47 -110 -97 -226 -112 -259 -14 -32 -26 -60 -26 -62 0 -2 248 -3 551 -2 l551
3 43 105 c23 58 85 209 137 335 110 265 305 736 388 940 32 77 77 185 100 240
23 55 61 147 85 205 128 314 163 398 185 446 10 22 35 83 55 135 21 52 45 109
54 127 l17 33 91 -248 c50 -136 112 -306 138 -378 144 -400 391 -1072 422
-1145 107 -257 126 -296 205 -411 149 -219 262 -306 483 -376 l120 -37 210 0
c196 -1 219 1 338 28 l127 29 0 434 c0 406 -1 433 -17 433 -10 0 -53 -7 -96
-15 -43 -8 -121 -15 -173 -15 l-94 0 -65 98 c-51 77 -67 110 -76 157 -12 68
-31 133 -65 220 -12 33 -73 195 -134 360 -61 165 -167 449 -235 630 -123 330
-326 874 -449 1206 -36 98 -114 309 -175 470 -60 162 -146 392 -190 512 -90
244 -239 553 -305 632 -67 82 -116 135 -201 222 -71 71 -95 88 -196 136 -63
31 -145 65 -184 76 -128 37 -360 49 -600 29z"/>
</g>
</svg>
