<?xml version="1.0" standalone="no"?>
<!DOCTYPE svg PUBLIC "-//W3C//DTD SVG 20010904//EN"
 "http://www.w3.org/TR/2001/REC-SVG-20010904/DTD/svg10.dtd">
<svg version="1.0" xmlns="http://www.w3.org/2000/svg"
 width="200.000000pt" height="200.000000pt" viewBox="0 0 200.000000 200.000000"
 preserveAspectRatio="xMidYMid meet">
<metadata>
Created by potrace 1.15, written by Peter Selinger 2001-2017
</metadata>
<g transform="translate(0.000000,200.000000) scale(0.100000,-0.100000)"
fill="#212121" stroke="#eee" style="background-color:#212121;">
<path d="M629 1991 c-102 -32 -171 -120 -153 -198 3 -15 8 -35 10 -43 3 -12
-6 -15 -41 -15 -55 -1 -92 -26 -122 -85 -25 -48 -32 -145 -13 -180 8 -15 5
-19 -16 -24 -72 -18 -117 -86 -119 -176 0 -44 -6 -61 -24 -79 -66 -66 -67
-193 -2 -272 l27 -31 -27 -29 c-45 -48 -63 -98 -63 -169 0 -36 6 -82 13 -104
16 -47 73 -112 105 -120 19 -5 22 -11 18 -36 -12 -85 35 -149 153 -205 60 -28
72 -38 84 -70 18 -50 77 -114 126 -136 63 -29 177 -26 243 7 77 38 91 64 102
186 17 171 26 1596 11 1641 -14 42 -74 96 -142 126 -45 21 -122 26 -170 12z
m146 -61 c22 -11 58 -35 78 -54 l37 -34 0 -237 c0 -130 -3 -235 -7 -233 -65
33 -110 49 -156 54 -56 7 -57 6 -57 -18 0 -26 20 -38 66 -38 36 0 124 -51 139
-81 12 -21 15 -69 15 -204 l0 -175 -23 0 c-13 0 -46 7 -73 15 -69 21 -94 20
-94 -6 0 -26 55 -50 132 -57 l58 -5 0 -138 0 -139 -80 0 c-127 0 -168 27 -231
152 -21 42 -35 58 -47 56 -29 -6 -25 -46 11 -111 67 -119 121 -151 255 -152
l93 0 -6 -125 c-11 -249 -14 -265 -43 -293 -15 -14 -43 -33 -62 -41 l-35 -14
3 113 c3 86 0 120 -11 142 -22 42 -98 114 -116 111 -32 -6 -23 -40 23 -87 54
-55 61 -81 51 -196 l-7 -86 -31 6 c-59 12 -110 56 -144 125 -18 36 -38 67 -45
69 -7 2 -40 17 -73 33 -148 72 -154 126 -30 265 30 33 55 71 55 82 0 36 -36
24 -84 -27 -25 -27 -61 -57 -80 -67 -34 -19 -35 -19 -57 0 -53 47 -75 159 -45
228 28 66 38 72 123 77 75 5 78 6 78 30 0 21 -6 25 -55 35 -30 6 -67 19 -82
29 -59 39 -79 146 -37 200 l21 27 44 -41 c27 -25 53 -40 69 -40 39 0 31 26
-27 80 -53 48 -53 48 -53 110 0 58 2 63 37 96 59 53 61 52 141 -67 31 -48 77
-104 100 -126 l43 -39 -33 -75 c-36 -82 -38 -113 -8 -117 17 -2 26 12 55 84
l35 87 52 3 c62 3 93 18 93 45 0 19 -4 20 -64 14 -75 -8 -104 3 -160 65 -77
85 -176 259 -176 307 1 39 34 109 58 122 12 6 32 11 47 11 27 0 99 -33 110
-50 3 -5 17 -10 31 -10 33 0 31 27 -5 70 -96 118 -78 205 54 246 57 18 83 17
130 -6z"/>
<path d="M1195 1965 c-68 -25 -99 -32 -128 -28 -28 4 -43 1 -57 -12 -24 -22
-27 -77 -5 -95 13 -11 15 -68 15 -401 l0 -389 105 0 c91 0 110 -3 134 -21 48
-36 101 -7 101 55 0 45 -72 75 -100 41 -9 -11 -35 -15 -101 -15 l-89 0 0 130
0 130 59 0 c38 0 70 -6 89 -17 61 -35 125 25 88 82 -19 29 -75 35 -96 10 -9
-10 -32 -15 -76 -15 l-64 0 0 195 c0 182 1 196 20 215 11 11 20 26 20 33 0 10
180 83 185 74 1 -1 20 -29 43 -61 23 -33 42 -67 42 -76 0 -26 -92 -110 -121
-110 -52 0 -79 -69 -41 -103 36 -33 102 -12 102 32 0 24 111 131 136 131 47 0
72 71 36 103 -10 10 -33 17 -50 17 -26 0 -37 9 -74 63 -26 36 -52 63 -63 64
-11 1 -60 -13 -110 -32z"/>
<path d="M1572 1734 c-12 -8 -22 -26 -22 -39 0 -32 -95 -115 -132 -115 -14 0
-34 -7 -42 -16 -20 -20 -21 -68 -1 -88 11 -11 15 -38 15 -109 0 -72 -4 -98
-15 -107 -20 -16 -19 -64 1 -84 8 -9 28 -16 44 -16 56 0 82 67 40 105 -17 15
-20 31 -20 104 0 74 3 89 20 104 11 9 20 27 20 39 0 31 97 115 126 110 32 -5
128 -126 130 -164 3 -55 65 -77 104 -38 37 37 14 100 -36 100 -31 0 -134 128
-134 166 0 55 -52 81 -98 48z"/>
<path d="M1547 1392 c-21 -23 -22 -62 -3 -87 10 -14 25 -19 52 -17 28 1 71
-13 152 -50 110 -51 112 -52 112 -85 l0 -33 -88 0 -88 0 -54 -55 c-31 -32 -63
-55 -75 -55 -31 0 -45 -19 -45 -62 0 -27 5 -40 19 -48 51 -27 101 1 101 56 0
21 11 41 38 67 37 36 40 37 115 37 l77 0 0 -78 c0 -73 -2 -80 -28 -105 -15
-15 -40 -27 -53 -27 -52 0 -79 -69 -41 -103 27 -25 78 -22 96 5 9 12 16 32 16
43 0 12 16 36 35 55 l35 34 -2 170 -3 170 -132 60 c-92 43 -132 66 -133 78 -1
44 -72 65 -103 30z"/>
<path d="M1006 944 c-20 -20 -21 -68 -1 -88 13 -12 15 -64 15 -339 l0 -325 91
-96 91 -96 157 0 157 0 62 85 c42 58 68 85 82 85 47 0 62 87 20 110 -50 27
-110 -11 -97 -61 4 -15 -9 -41 -44 -90 l-51 -69 -74 0 -74 0 0 89 c0 66 4 97
17 119 36 62 -24 126 -81 88 -30 -19 -36 -75 -11 -96 11 -9 15 -35 15 -106 l0
-94 -28 0 c-27 0 -42 13 -151 132 l-33 37 7 145 7 146 48 0 c31 0 52 -5 60
-16 22 -25 81 -14 100 19 13 24 13 30 0 55 -19 32 -78 43 -100 18 -8 -11 -29
-16 -61 -16 l-49 0 0 134 c0 106 3 136 15 146 21 17 19 63 -3 83 -23 21 -66
22 -86 1z"/>
<path d="M1246 894 c-33 -33 -10 -104 34 -104 10 0 33 -20 51 -45 l34 -44 73
-1 72 0 0 -39 c0 -24 -5 -41 -14 -44 -22 -9 -29 -56 -11 -83 11 -17 25 -24 49
-24 59 0 87 59 46 100 -12 12 -20 33 -20 55 0 34 1 35 38 35 39 0 45 -3 179
-102 l52 -38 -31 -75 -30 -75 -99 0 c-86 0 -102 3 -119 20 -25 25 -72 26 -93
2 -22 -24 -21 -65 1 -85 23 -21 75 -22 92 -2 10 12 38 15 135 15 l122 0 43
104 c24 58 43 108 43 113 1 4 -50 45 -112 91 l-113 82 -134 0 -133 0 -25 33
c-16 21 -26 47 -26 68 0 19 -5 40 -12 47 -17 17 -74 15 -92 -4z"/>
</g>
</svg>
