<?xml version="1.0" standalone="no"?>
<!DOCTYPE svg PUBLIC "-//W3C//DTD SVG 20010904//EN"
 "http://www.w3.org/TR/2001/REC-SVG-20010904/DTD/svg10.dtd">
<svg version="1.0" xmlns="http://www.w3.org/2000/svg"
 width="512.000000pt" height="512.000000pt" viewBox="0 0 512.000000 512.000000"
 preserveAspectRatio="xMidYMid meet">
<metadata>
Created by potrace 1.15, written by Peter Selinger 2001-2017
</metadata>
<g transform="translate(0.000000,512.000000) scale(0.100000,-0.100000)"
fill="#000000" stroke="none" style="enable-background:new 0 0 256 256;background-color:#eee;fill:#212121;">
<path d="M2390 4820 c-252 -17 -432 -95 -542 -233 -77 -97 -144 -270 -163
-420 l-7 -57 -527 0 c-289 0 -562 -4 -607 -9 -240 -28 -418 -176 -474 -395
-19 -75 -20 -110 -20 -709 0 -567 2 -632 17 -664 20 -43 60 -69 130 -84 l53
-12 0 -746 c0 -820 0 -817 61 -932 61 -113 183 -211 306 -245 65 -18 143 -19
1953 -19 l1885 0 66 23 c173 59 303 203 338 370 7 36 11 295 11 802 l0 748 52
11 c28 7 66 20 84 31 66 41 64 21 64 717 0 698 0 699 -66 824 -42 79 -141 178
-220 221 -113 61 -114 61 -755 66 l-585 3 -12 85 c-26 178 -111 356 -214 449
-97 87 -224 142 -378 163 -109 16 -318 21 -450 12z m385 -290 c156 -23 243
-67 300 -154 33 -50 68 -153 79 -228 l5 -38 -595 0 -594 0 0 31 c0 45 28 145
56 200 57 114 144 163 344 193 55 8 339 5 405 -4z m1836 -725 c63 -22 118 -70
145 -129 l24 -51 0 -560 0 -561 -212 -42 c-448 -88 -880 -144 -1380 -178 l-98
-6 0 115 c0 94 -4 127 -21 173 -27 73 -86 136 -158 171 l-56 28 -268 3 c-217
3 -278 0 -320 -12 -111 -32 -195 -115 -223 -220 -8 -28 -14 -98 -14 -155 l0
-103 -102 7 c-482 31 -1009 101 -1453 193 l-130 27 0 560 0 560 23 47 c28 57
89 112 146 132 35 12 316 15 2047 15 1774 1 2011 -1 2050 -14z m-1821 -1335
c19 -19 20 -33 20 -349 0 -286 -2 -332 -16 -345 -13 -14 -48 -16 -229 -16
-117 0 -220 3 -229 6 -14 5 -16 46 -16 355 0 321 1 349 18 358 10 6 102 11
225 11 194 0 208 -1 227 -20z m-2060 -325 c345 -60 730 -108 1080 -134 l225
-16 5 -145 c4 -121 9 -153 27 -192 30 -66 102 -132 170 -158 54 -20 72 -21
347 -18 281 3 292 4 334 26 66 35 119 88 148 149 24 49 28 70 33 196 l6 142
170 12 c381 26 990 105 1298 169 l27 6 0 -696 c0 -389 -4 -696 -9 -696 -5 0
-11 -17 -15 -38 -8 -51 -41 -99 -95 -137 l-43 -30 -1876 0 -1877 0 -42 28
c-24 15 -55 46 -70 69 l-28 42 -3 728 -2 728 22 -5 c13 -2 88 -16 168 -30z"/>
</g>
</svg>
